solid OpenSCAD_Model
  facet normal -0 0 1
    outer loop
      vertex -0.8 15.8 -5.2
      vertex 31.8 -0.8 -5.2
      vertex 31.8 15.8 -5.2
    endloop
  endfacet
  facet normal 0 0 1
    outer loop
      vertex 31.8 -0.8 -5.2
      vertex -0.8 15.8 -5.2
      vertex -0.8 -0.8 -5.2
    endloop
  endfacet
  facet normal 0 0 -1
    outer loop
      vertex -0.8 -0.8 -6
      vertex 31.8 15.8 -6
      vertex 31.8 -0.8 -6
    endloop
  endfacet
  facet normal -0 0 -1
    outer loop
      vertex 31.8 15.8 -6
      vertex -0.8 -0.8 -6
      vertex -0.8 15.8 -6
    endloop
  endfacet
  facet normal 0 -1 0
    outer loop
      vertex -0.8 -0.8 -6
      vertex 31.8 -0.8 -5.2
      vertex -0.8 -0.8 -5.2
    endloop
  endfacet
  facet normal 0 -1 -0
    outer loop
      vertex 31.8 -0.8 -5.2
      vertex -0.8 -0.8 -6
      vertex 31.8 -0.8 -6
    endloop
  endfacet
  facet normal 1 -0 0
    outer loop
      vertex 31.8 -0.8 -5.2
      vertex 31.8 15.8 -6
      vertex 31.8 15.8 -5.2
    endloop
  endfacet
  facet normal 1 0 0
    outer loop
      vertex 31.8 15.8 -6
      vertex 31.8 -0.8 -5.2
      vertex 31.8 -0.8 -6
    endloop
  endfacet
  facet normal 0 1 -0
    outer loop
      vertex 31.8 15.8 -6
      vertex -0.8 15.8 -5.2
      vertex 31.8 15.8 -5.2
    endloop
  endfacet
  facet normal 0 1 0
    outer loop
      vertex -0.8 15.8 -5.2
      vertex 31.8 15.8 -6
      vertex -0.8 15.8 -6
    endloop
  endfacet
  facet normal -1 0 0
    outer loop
      vertex -0.8 -0.8 -6
      vertex -0.8 15.8 -5.2
      vertex -0.8 15.8 -6
    endloop
  endfacet
  facet normal -1 -0 0
    outer loop
      vertex -0.8 15.8 -5.2
      vertex -0.8 -0.8 -6
      vertex -0.8 -0.8 -5.2
    endloop
  endfacet
endsolid OpenSCAD_Model
