  0
SECTION
  2
HEADER
  9
$ACADVER
  1
AC1009
  9
$EXTMIN
 10
0.0
 20
0.0
 30
0.0
  9
$EXTMAX
 10
1000.0
 20
1000.0
 30
0.0
  9
$FILLMODE
 70
 0
  9
$SPLFRAME
 70
 1
  0
ENDSEC
  0
SECTION
  2
TABLES
  0
TABLE
  2
LAYER
 70
1
  0
LAYER
  2
0
 70
     0
 62
     7
  6
CONTINUOUS
  0
ENDTAB
  0
ENDSEC
  0
SECTION
  2
ENTITIES
  0
LINE
  8
0
 62
     0
 10
0.0950846
 20
95.5075
 30
0.0
 11
95.3452
 21
95.5075
 31
0.0
  0
LINE
  8
0
 62
     0
 10
95.3452
 20
95.5075
 30
0.0
 11
95.3452
 21
0.257693
 31
0.0
  0
LINE
  8
0
 62
     0
 10
95.3452
 20
0.257693
 30
0.0
 11
0.0950846
 21
0.257693
 31
0.0
  0
LINE
  8
0
 62
     0
 10
0.0950846
 20
0.257693
 30
0.0
 11
0.0950846
 21
95.5075
 31
0.0
  0
LINE
  8
0
 62
     0
 10
78.8197
 20
16.7831
 30
0.0
 11
78.8197
 21
15.7827
 31
0.0
  0
LINE
  8
0
 62
     0
 10
78.8197
 20
15.7827
 30
0.0
 11
78.0189
 21
15.7827
 31
0.0
  0
LINE
  8
0
 62
     0
 10
78.0189
 20
15.7827
 30
0.0
 11
78.0189
 21
12.6848
 31
0.0
  0
LINE
  8
0
 62
     0
 10
78.0189
 20
12.6848
 30
0.0
 11
78.8197
 21
12.6848
 31
0.0
  0
LINE
  8
0
 62
     0
 10
78.8197
 20
12.6848
 30
0.0
 11
78.8197
 21
6.88329
 31
0.0
  0
LINE
  8
0
 62
     0
 10
78.8197
 20
6.88329
 30
0.0
 11
78.0189
 21
6.88329
 31
0.0
  0
LINE
  8
0
 62
     0
 10
78.0189
 20
6.88329
 30
0.0
 11
78.0189
 21
3.78273
 31
0.0
  0
LINE
  8
0
 62
     0
 10
78.0189
 20
3.78273
 30
0.0
 11
78.8197
 21
3.78273
 31
0.0
  0
LINE
  8
0
 62
     0
 10
78.8197
 20
3.78273
 30
0.0
 11
78.8197
 21
2.78364
 31
0.0
  0
LINE
  8
0
 62
     0
 10
78.8197
 20
2.78364
 30
0.0
 11
92.819
 21
2.78364
 31
0.0
  0
LINE
  8
0
 62
     0
 10
92.819
 20
2.78364
 30
0.0
 11
92.819
 21
3.78273
 31
0.0
  0
LINE
  8
0
 62
     0
 10
92.819
 20
3.78273
 30
0.0
 11
93.6184
 21
3.78273
 31
0.0
  0
LINE
  8
0
 62
     0
 10
93.6184
 20
3.78273
 30
0.0
 11
93.6184
 21
6.88329
 31
0.0
  0
LINE
  8
0
 62
     0
 10
93.6184
 20
6.88329
 30
0.0
 11
92.819
 21
6.88329
 31
0.0
  0
LINE
  8
0
 62
     0
 10
92.819
 20
6.88329
 30
0.0
 11
92.819
 21
12.6848
 31
0.0
  0
LINE
  8
0
 62
     0
 10
92.819
 20
12.6848
 30
0.0
 11
93.6184
 21
12.6848
 31
0.0
  0
LINE
  8
0
 62
     0
 10
93.6184
 20
12.6848
 30
0.0
 11
93.6184
 21
15.7827
 31
0.0
  0
LINE
  8
0
 62
     0
 10
93.6184
 20
15.7827
 30
0.0
 11
92.819
 21
15.7827
 31
0.0
  0
LINE
  8
0
 62
     0
 10
92.819
 20
15.7827
 30
0.0
 11
92.819
 21
16.7831
 31
0.0
  0
LINE
  8
0
 62
     0
 10
92.819
 20
16.7831
 30
0.0
 11
78.8197
 21
16.7831
 31
0.0
  0
LINE
  8
0
 62
     0
 10
59.7697
 20
16.7831
 30
0.0
 11
59.7697
 21
15.7827
 31
0.0
  0
LINE
  8
0
 62
     0
 10
59.7697
 20
15.7827
 30
0.0
 11
58.9689
 21
15.7827
 31
0.0
  0
LINE
  8
0
 62
     0
 10
58.9689
 20
15.7827
 30
0.0
 11
58.9689
 21
12.6848
 31
0.0
  0
LINE
  8
0
 62
     0
 10
58.9689
 20
12.6848
 30
0.0
 11
59.7697
 21
12.6848
 31
0.0
  0
LINE
  8
0
 62
     0
 10
59.7697
 20
12.6848
 30
0.0
 11
59.7697
 21
6.88329
 31
0.0
  0
LINE
  8
0
 62
     0
 10
59.7697
 20
6.88329
 30
0.0
 11
58.9689
 21
6.88329
 31
0.0
  0
LINE
  8
0
 62
     0
 10
58.9689
 20
6.88329
 30
0.0
 11
58.9689
 21
3.78273
 31
0.0
  0
LINE
  8
0
 62
     0
 10
58.9689
 20
3.78273
 30
0.0
 11
59.7697
 21
3.78273
 31
0.0
  0
LINE
  8
0
 62
     0
 10
59.7697
 20
3.78273
 30
0.0
 11
59.7697
 21
2.78364
 31
0.0
  0
LINE
  8
0
 62
     0
 10
59.7697
 20
2.78364
 30
0.0
 11
73.769
 21
2.78364
 31
0.0
  0
LINE
  8
0
 62
     0
 10
73.769
 20
2.78364
 30
0.0
 11
73.769
 21
3.78273
 31
0.0
  0
LINE
  8
0
 62
     0
 10
73.769
 20
3.78273
 30
0.0
 11
74.5698
 21
3.78273
 31
0.0
  0
LINE
  8
0
 62
     0
 10
74.5698
 20
3.78273
 30
0.0
 11
74.5698
 21
6.88329
 31
0.0
  0
LINE
  8
0
 62
     0
 10
74.5698
 20
6.88329
 30
0.0
 11
73.769
 21
6.88329
 31
0.0
  0
LINE
  8
0
 62
     0
 10
73.769
 20
6.88329
 30
0.0
 11
73.769
 21
12.6848
 31
0.0
  0
LINE
  8
0
 62
     0
 10
73.769
 20
12.6848
 30
0.0
 11
74.5698
 21
12.6848
 31
0.0
  0
LINE
  8
0
 62
     0
 10
74.5698
 20
12.6848
 30
0.0
 11
74.5698
 21
15.7827
 31
0.0
  0
LINE
  8
0
 62
     0
 10
74.5698
 20
15.7827
 30
0.0
 11
73.769
 21
15.7827
 31
0.0
  0
LINE
  8
0
 62
     0
 10
73.769
 20
15.7827
 30
0.0
 11
73.769
 21
16.7831
 31
0.0
  0
LINE
  8
0
 62
     0
 10
73.769
 20
16.7831
 30
0.0
 11
59.7697
 21
16.7831
 31
0.0
  0
LINE
  8
0
 62
     0
 10
40.7197
 20
16.7831
 30
0.0
 11
40.7197
 21
15.7827
 31
0.0
  0
LINE
  8
0
 62
     0
 10
40.7197
 20
15.7827
 30
0.0
 11
39.9189
 21
15.7827
 31
0.0
  0
LINE
  8
0
 62
     0
 10
39.9189
 20
15.7827
 30
0.0
 11
39.9189
 21
12.6848
 31
0.0
  0
LINE
  8
0
 62
     0
 10
39.9189
 20
12.6848
 30
0.0
 11
40.7197
 21
12.6848
 31
0.0
  0
LINE
  8
0
 62
     0
 10
40.7197
 20
12.6848
 30
0.0
 11
40.7197
 21
6.88329
 31
0.0
  0
LINE
  8
0
 62
     0
 10
40.7197
 20
6.88329
 30
0.0
 11
39.9189
 21
6.88329
 31
0.0
  0
LINE
  8
0
 62
     0
 10
39.9189
 20
6.88329
 30
0.0
 11
39.9189
 21
3.78273
 31
0.0
  0
LINE
  8
0
 62
     0
 10
39.9189
 20
3.78273
 30
0.0
 11
40.7197
 21
3.78273
 31
0.0
  0
LINE
  8
0
 62
     0
 10
40.7197
 20
3.78273
 30
0.0
 11
40.7197
 21
2.78364
 31
0.0
  0
LINE
  8
0
 62
     0
 10
40.7197
 20
2.78364
 30
0.0
 11
54.719
 21
2.78364
 31
0.0
  0
LINE
  8
0
 62
     0
 10
54.719
 20
2.78364
 30
0.0
 11
54.719
 21
3.78273
 31
0.0
  0
LINE
  8
0
 62
     0
 10
54.719
 20
3.78273
 30
0.0
 11
55.5198
 21
3.78273
 31
0.0
  0
LINE
  8
0
 62
     0
 10
55.5198
 20
3.78273
 30
0.0
 11
55.5198
 21
6.88329
 31
0.0
  0
LINE
  8
0
 62
     0
 10
55.5198
 20
6.88329
 30
0.0
 11
54.719
 21
6.88329
 31
0.0
  0
LINE
  8
0
 62
     0
 10
54.719
 20
6.88329
 30
0.0
 11
54.719
 21
12.6848
 31
0.0
  0
LINE
  8
0
 62
     0
 10
54.719
 20
12.6848
 30
0.0
 11
55.5198
 21
12.6848
 31
0.0
  0
LINE
  8
0
 62
     0
 10
55.5198
 20
12.6848
 30
0.0
 11
55.5198
 21
15.7827
 31
0.0
  0
LINE
  8
0
 62
     0
 10
55.5198
 20
15.7827
 30
0.0
 11
54.719
 21
15.7827
 31
0.0
  0
LINE
  8
0
 62
     0
 10
54.719
 20
15.7827
 30
0.0
 11
54.719
 21
16.7831
 31
0.0
  0
LINE
  8
0
 62
     0
 10
54.719
 20
16.7831
 30
0.0
 11
40.7197
 21
16.7831
 31
0.0
  0
LINE
  8
0
 62
     0
 10
78.8197
 20
35.833
 30
0.0
 11
78.8197
 21
34.8327
 31
0.0
  0
LINE
  8
0
 62
     0
 10
78.8197
 20
34.8327
 30
0.0
 11
78.0189
 21
34.8327
 31
0.0
  0
LINE
  8
0
 62
     0
 10
78.0189
 20
34.8327
 30
0.0
 11
78.0189
 21
31.7348
 31
0.0
  0
LINE
  8
0
 62
     0
 10
78.0189
 20
31.7348
 30
0.0
 11
78.8197
 21
31.7348
 31
0.0
  0
LINE
  8
0
 62
     0
 10
78.8197
 20
31.7348
 30
0.0
 11
78.8197
 21
25.9333
 31
0.0
  0
LINE
  8
0
 62
     0
 10
78.8197
 20
25.9333
 30
0.0
 11
78.0189
 21
25.9333
 31
0.0
  0
LINE
  8
0
 62
     0
 10
78.0189
 20
25.9333
 30
0.0
 11
78.0189
 21
22.8327
 31
0.0
  0
LINE
  8
0
 62
     0
 10
78.0189
 20
22.8327
 30
0.0
 11
78.8197
 21
22.8327
 31
0.0
  0
LINE
  8
0
 62
     0
 10
78.8197
 20
22.8327
 30
0.0
 11
78.8197
 21
21.8336
 31
0.0
  0
LINE
  8
0
 62
     0
 10
78.8197
 20
21.8336
 30
0.0
 11
92.819
 21
21.8336
 31
0.0
  0
LINE
  8
0
 62
     0
 10
92.819
 20
21.8336
 30
0.0
 11
92.819
 21
22.8327
 31
0.0
  0
LINE
  8
0
 62
     0
 10
92.819
 20
22.8327
 30
0.0
 11
93.6184
 21
22.8327
 31
0.0
  0
LINE
  8
0
 62
     0
 10
93.6184
 20
22.8327
 30
0.0
 11
93.6184
 21
25.9333
 31
0.0
  0
LINE
  8
0
 62
     0
 10
93.6184
 20
25.9333
 30
0.0
 11
92.819
 21
25.9333
 31
0.0
  0
LINE
  8
0
 62
     0
 10
92.819
 20
25.9333
 30
0.0
 11
92.819
 21
31.7348
 31
0.0
  0
LINE
  8
0
 62
     0
 10
92.819
 20
31.7348
 30
0.0
 11
93.6184
 21
31.7348
 31
0.0
  0
LINE
  8
0
 62
     0
 10
93.6184
 20
31.7348
 30
0.0
 11
93.6184
 21
34.8327
 31
0.0
  0
LINE
  8
0
 62
     0
 10
93.6184
 20
34.8327
 30
0.0
 11
92.819
 21
34.8327
 31
0.0
  0
LINE
  8
0
 62
     0
 10
92.819
 20
34.8327
 30
0.0
 11
92.819
 21
35.833
 31
0.0
  0
LINE
  8
0
 62
     0
 10
92.819
 20
35.833
 30
0.0
 11
78.8197
 21
35.833
 31
0.0
  0
LINE
  8
0
 62
     0
 10
59.7697
 20
35.833
 30
0.0
 11
59.7697
 21
34.8327
 31
0.0
  0
LINE
  8
0
 62
     0
 10
59.7697
 20
34.8327
 30
0.0
 11
58.9689
 21
34.8327
 31
0.0
  0
LINE
  8
0
 62
     0
 10
58.9689
 20
34.8327
 30
0.0
 11
58.9689
 21
31.7348
 31
0.0
  0
LINE
  8
0
 62
     0
 10
58.9689
 20
31.7348
 30
0.0
 11
59.7697
 21
31.7348
 31
0.0
  0
LINE
  8
0
 62
     0
 10
59.7697
 20
31.7348
 30
0.0
 11
59.7697
 21
25.9333
 31
0.0
  0
LINE
  8
0
 62
     0
 10
59.7697
 20
25.9333
 30
0.0
 11
58.9689
 21
25.9333
 31
0.0
  0
LINE
  8
0
 62
     0
 10
58.9689
 20
25.9333
 30
0.0
 11
58.9689
 21
22.8327
 31
0.0
  0
LINE
  8
0
 62
     0
 10
58.9689
 20
22.8327
 30
0.0
 11
59.7697
 21
22.8327
 31
0.0
  0
LINE
  8
0
 62
     0
 10
59.7697
 20
22.8327
 30
0.0
 11
59.7697
 21
21.8336
 31
0.0
  0
LINE
  8
0
 62
     0
 10
59.7697
 20
21.8336
 30
0.0
 11
73.769
 21
21.8336
 31
0.0
  0
LINE
  8
0
 62
     0
 10
73.769
 20
21.8336
 30
0.0
 11
73.769
 21
22.8327
 31
0.0
  0
LINE
  8
0
 62
     0
 10
73.769
 20
22.8327
 30
0.0
 11
74.5698
 21
22.8327
 31
0.0
  0
LINE
  8
0
 62
     0
 10
74.5698
 20
22.8327
 30
0.0
 11
74.5698
 21
25.9333
 31
0.0
  0
LINE
  8
0
 62
     0
 10
74.5698
 20
25.9333
 30
0.0
 11
73.769
 21
25.9333
 31
0.0
  0
LINE
  8
0
 62
     0
 10
73.769
 20
25.9333
 30
0.0
 11
73.769
 21
31.7348
 31
0.0
  0
LINE
  8
0
 62
     0
 10
73.769
 20
31.7348
 30
0.0
 11
74.5698
 21
31.7348
 31
0.0
  0
LINE
  8
0
 62
     0
 10
74.5698
 20
31.7348
 30
0.0
 11
74.5698
 21
34.8327
 31
0.0
  0
LINE
  8
0
 62
     0
 10
74.5698
 20
34.8327
 30
0.0
 11
73.769
 21
34.8327
 31
0.0
  0
LINE
  8
0
 62
     0
 10
73.769
 20
34.8327
 30
0.0
 11
73.769
 21
35.833
 31
0.0
  0
LINE
  8
0
 62
     0
 10
73.769
 20
35.833
 30
0.0
 11
59.7697
 21
35.833
 31
0.0
  0
LINE
  8
0
 62
     0
 10
40.7197
 20
35.833
 30
0.0
 11
40.7197
 21
34.8327
 31
0.0
  0
LINE
  8
0
 62
     0
 10
40.7197
 20
34.8327
 30
0.0
 11
39.9189
 21
34.8327
 31
0.0
  0
LINE
  8
0
 62
     0
 10
39.9189
 20
34.8327
 30
0.0
 11
39.9189
 21
31.7348
 31
0.0
  0
LINE
  8
0
 62
     0
 10
39.9189
 20
31.7348
 30
0.0
 11
40.7197
 21
31.7348
 31
0.0
  0
LINE
  8
0
 62
     0
 10
40.7197
 20
31.7348
 30
0.0
 11
40.7197
 21
25.9333
 31
0.0
  0
LINE
  8
0
 62
     0
 10
40.7197
 20
25.9333
 30
0.0
 11
39.9189
 21
25.9333
 31
0.0
  0
LINE
  8
0
 62
     0
 10
39.9189
 20
25.9333
 30
0.0
 11
39.9189
 21
22.8327
 31
0.0
  0
LINE
  8
0
 62
     0
 10
39.9189
 20
22.8327
 30
0.0
 11
40.7197
 21
22.8327
 31
0.0
  0
LINE
  8
0
 62
     0
 10
40.7197
 20
22.8327
 30
0.0
 11
40.7197
 21
21.8336
 31
0.0
  0
LINE
  8
0
 62
     0
 10
40.7197
 20
21.8336
 30
0.0
 11
54.719
 21
21.8336
 31
0.0
  0
LINE
  8
0
 62
     0
 10
54.719
 20
21.8336
 30
0.0
 11
54.719
 21
22.8327
 31
0.0
  0
LINE
  8
0
 62
     0
 10
54.719
 20
22.8327
 30
0.0
 11
55.5198
 21
22.8327
 31
0.0
  0
LINE
  8
0
 62
     0
 10
55.5198
 20
22.8327
 30
0.0
 11
55.5198
 21
25.9333
 31
0.0
  0
LINE
  8
0
 62
     0
 10
55.5198
 20
25.9333
 30
0.0
 11
54.719
 21
25.9333
 31
0.0
  0
LINE
  8
0
 62
     0
 10
54.719
 20
25.9333
 30
0.0
 11
54.719
 21
31.7348
 31
0.0
  0
LINE
  8
0
 62
     0
 10
54.719
 20
31.7348
 30
0.0
 11
55.5198
 21
31.7348
 31
0.0
  0
LINE
  8
0
 62
     0
 10
55.5198
 20
31.7348
 30
0.0
 11
55.5198
 21
34.8327
 31
0.0
  0
LINE
  8
0
 62
     0
 10
55.5198
 20
34.8327
 30
0.0
 11
54.719
 21
34.8327
 31
0.0
  0
LINE
  8
0
 62
     0
 10
54.719
 20
34.8327
 30
0.0
 11
54.719
 21
35.833
 31
0.0
  0
LINE
  8
0
 62
     0
 10
54.719
 20
35.833
 30
0.0
 11
40.7197
 21
35.833
 31
0.0
  0
LINE
  8
0
 62
     0
 10
78.8197
 20
54.8831
 30
0.0
 11
78.8197
 21
53.8826
 31
0.0
  0
LINE
  8
0
 62
     0
 10
78.8197
 20
53.8826
 30
0.0
 11
78.0189
 21
53.8826
 31
0.0
  0
LINE
  8
0
 62
     0
 10
78.0189
 20
53.8826
 30
0.0
 11
78.0189
 21
50.7834
 31
0.0
  0
LINE
  8
0
 62
     0
 10
78.0189
 20
50.7834
 30
0.0
 11
78.8197
 21
50.7834
 31
0.0
  0
LINE
  8
0
 62
     0
 10
78.8197
 20
50.7834
 30
0.0
 11
78.8197
 21
44.9834
 31
0.0
  0
LINE
  8
0
 62
     0
 10
78.8197
 20
44.9834
 30
0.0
 11
78.0189
 21
44.9834
 31
0.0
  0
LINE
  8
0
 62
     0
 10
78.0189
 20
44.9834
 30
0.0
 11
78.0189
 21
41.8828
 31
0.0
  0
LINE
  8
0
 62
     0
 10
78.0189
 20
41.8828
 30
0.0
 11
78.8197
 21
41.8828
 31
0.0
  0
LINE
  8
0
 62
     0
 10
78.8197
 20
41.8828
 30
0.0
 11
78.8197
 21
40.8838
 31
0.0
  0
LINE
  8
0
 62
     0
 10
78.8197
 20
40.8838
 30
0.0
 11
92.819
 21
40.8838
 31
0.0
  0
LINE
  8
0
 62
     0
 10
92.819
 20
40.8838
 30
0.0
 11
92.819
 21
41.8828
 31
0.0
  0
LINE
  8
0
 62
     0
 10
92.819
 20
41.8828
 30
0.0
 11
93.6184
 21
41.8828
 31
0.0
  0
LINE
  8
0
 62
     0
 10
93.6184
 20
41.8828
 30
0.0
 11
93.6184
 21
44.9834
 31
0.0
  0
LINE
  8
0
 62
     0
 10
93.6184
 20
44.9834
 30
0.0
 11
92.819
 21
44.9834
 31
0.0
  0
LINE
  8
0
 62
     0
 10
92.819
 20
44.9834
 30
0.0
 11
92.819
 21
50.7834
 31
0.0
  0
LINE
  8
0
 62
     0
 10
92.819
 20
50.7834
 30
0.0
 11
93.6184
 21
50.7834
 31
0.0
  0
LINE
  8
0
 62
     0
 10
93.6184
 20
50.7834
 30
0.0
 11
93.6184
 21
53.8826
 31
0.0
  0
LINE
  8
0
 62
     0
 10
93.6184
 20
53.8826
 30
0.0
 11
92.819
 21
53.8826
 31
0.0
  0
LINE
  8
0
 62
     0
 10
92.819
 20
53.8826
 30
0.0
 11
92.819
 21
54.8831
 31
0.0
  0
LINE
  8
0
 62
     0
 10
92.819
 20
54.8831
 30
0.0
 11
78.8197
 21
54.8831
 31
0.0
  0
LINE
  8
0
 62
     0
 10
59.7697
 20
54.8831
 30
0.0
 11
59.7697
 21
53.8826
 31
0.0
  0
LINE
  8
0
 62
     0
 10
59.7697
 20
53.8826
 30
0.0
 11
58.9689
 21
53.8826
 31
0.0
  0
LINE
  8
0
 62
     0
 10
58.9689
 20
53.8826
 30
0.0
 11
58.9689
 21
50.7834
 31
0.0
  0
LINE
  8
0
 62
     0
 10
58.9689
 20
50.7834
 30
0.0
 11
59.7697
 21
50.7834
 31
0.0
  0
LINE
  8
0
 62
     0
 10
59.7697
 20
50.7834
 30
0.0
 11
59.7697
 21
44.9834
 31
0.0
  0
LINE
  8
0
 62
     0
 10
59.7697
 20
44.9834
 30
0.0
 11
58.9689
 21
44.9834
 31
0.0
  0
LINE
  8
0
 62
     0
 10
58.9689
 20
44.9834
 30
0.0
 11
58.9689
 21
41.8828
 31
0.0
  0
LINE
  8
0
 62
     0
 10
58.9689
 20
41.8828
 30
0.0
 11
59.7697
 21
41.8828
 31
0.0
  0
LINE
  8
0
 62
     0
 10
59.7697
 20
41.8828
 30
0.0
 11
59.7697
 21
40.8838
 31
0.0
  0
LINE
  8
0
 62
     0
 10
59.7697
 20
40.8838
 30
0.0
 11
73.769
 21
40.8838
 31
0.0
  0
LINE
  8
0
 62
     0
 10
73.769
 20
40.8838
 30
0.0
 11
73.769
 21
41.8828
 31
0.0
  0
LINE
  8
0
 62
     0
 10
73.769
 20
41.8828
 30
0.0
 11
74.5698
 21
41.8828
 31
0.0
  0
LINE
  8
0
 62
     0
 10
74.5698
 20
41.8828
 30
0.0
 11
74.5698
 21
44.9834
 31
0.0
  0
LINE
  8
0
 62
     0
 10
74.5698
 20
44.9834
 30
0.0
 11
73.769
 21
44.9834
 31
0.0
  0
LINE
  8
0
 62
     0
 10
73.769
 20
44.9834
 30
0.0
 11
73.769
 21
50.7834
 31
0.0
  0
LINE
  8
0
 62
     0
 10
73.769
 20
50.7834
 30
0.0
 11
74.5698
 21
50.7834
 31
0.0
  0
LINE
  8
0
 62
     0
 10
74.5698
 20
50.7834
 30
0.0
 11
74.5698
 21
53.8826
 31
0.0
  0
LINE
  8
0
 62
     0
 10
74.5698
 20
53.8826
 30
0.0
 11
73.769
 21
53.8826
 31
0.0
  0
LINE
  8
0
 62
     0
 10
73.769
 20
53.8826
 30
0.0
 11
73.769
 21
54.8831
 31
0.0
  0
LINE
  8
0
 62
     0
 10
73.769
 20
54.8831
 30
0.0
 11
59.7697
 21
54.8831
 31
0.0
  0
LINE
  8
0
 62
     0
 10
40.7197
 20
54.8831
 30
0.0
 11
40.7197
 21
53.8826
 31
0.0
  0
LINE
  8
0
 62
     0
 10
40.7197
 20
53.8826
 30
0.0
 11
39.9189
 21
53.8826
 31
0.0
  0
LINE
  8
0
 62
     0
 10
39.9189
 20
53.8826
 30
0.0
 11
39.9189
 21
50.7834
 31
0.0
  0
LINE
  8
0
 62
     0
 10
39.9189
 20
50.7834
 30
0.0
 11
40.7197
 21
50.7834
 31
0.0
  0
LINE
  8
0
 62
     0
 10
40.7197
 20
50.7834
 30
0.0
 11
40.7197
 21
44.9834
 31
0.0
  0
LINE
  8
0
 62
     0
 10
40.7197
 20
44.9834
 30
0.0
 11
39.9189
 21
44.9834
 31
0.0
  0
LINE
  8
0
 62
     0
 10
39.9189
 20
44.9834
 30
0.0
 11
39.9189
 21
41.8828
 31
0.0
  0
LINE
  8
0
 62
     0
 10
39.9189
 20
41.8828
 30
0.0
 11
40.7197
 21
41.8828
 31
0.0
  0
LINE
  8
0
 62
     0
 10
40.7197
 20
41.8828
 30
0.0
 11
40.7197
 21
40.8838
 31
0.0
  0
LINE
  8
0
 62
     0
 10
40.7197
 20
40.8838
 30
0.0
 11
54.719
 21
40.8838
 31
0.0
  0
LINE
  8
0
 62
     0
 10
54.719
 20
40.8838
 30
0.0
 11
54.719
 21
41.8828
 31
0.0
  0
LINE
  8
0
 62
     0
 10
54.719
 20
41.8828
 30
0.0
 11
55.5198
 21
41.8828
 31
0.0
  0
LINE
  8
0
 62
     0
 10
55.5198
 20
41.8828
 30
0.0
 11
55.5198
 21
44.9834
 31
0.0
  0
LINE
  8
0
 62
     0
 10
55.5198
 20
44.9834
 30
0.0
 11
54.719
 21
44.9834
 31
0.0
  0
LINE
  8
0
 62
     0
 10
54.719
 20
44.9834
 30
0.0
 11
54.719
 21
50.7834
 31
0.0
  0
LINE
  8
0
 62
     0
 10
54.719
 20
50.7834
 30
0.0
 11
55.5198
 21
50.7834
 31
0.0
  0
LINE
  8
0
 62
     0
 10
55.5198
 20
50.7834
 30
0.0
 11
55.5198
 21
53.8826
 31
0.0
  0
LINE
  8
0
 62
     0
 10
55.5198
 20
53.8826
 30
0.0
 11
54.719
 21
53.8826
 31
0.0
  0
LINE
  8
0
 62
     0
 10
54.719
 20
53.8826
 30
0.0
 11
54.719
 21
54.8831
 31
0.0
  0
LINE
  8
0
 62
     0
 10
54.719
 20
54.8831
 30
0.0
 11
40.7197
 21
54.8831
 31
0.0
  0
LINE
  8
0
 62
     0
 10
21.6697
 20
54.8831
 30
0.0
 11
21.6697
 21
53.8826
 31
0.0
  0
LINE
  8
0
 62
     0
 10
21.6697
 20
53.8826
 30
0.0
 11
20.869
 21
53.8826
 31
0.0
  0
LINE
  8
0
 62
     0
 10
20.869
 20
53.8826
 30
0.0
 11
20.869
 21
50.7834
 31
0.0
  0
LINE
  8
0
 62
     0
 10
20.869
 20
50.7834
 30
0.0
 11
21.6697
 21
50.7834
 31
0.0
  0
LINE
  8
0
 62
     0
 10
21.6697
 20
50.7834
 30
0.0
 11
21.6697
 21
44.9834
 31
0.0
  0
LINE
  8
0
 62
     0
 10
21.6697
 20
44.9834
 30
0.0
 11
20.869
 21
44.9834
 31
0.0
  0
LINE
  8
0
 62
     0
 10
20.869
 20
44.9834
 30
0.0
 11
20.869
 21
41.8828
 31
0.0
  0
LINE
  8
0
 62
     0
 10
20.869
 20
41.8828
 30
0.0
 11
21.6697
 21
41.8828
 31
0.0
  0
LINE
  8
0
 62
     0
 10
21.6697
 20
41.8828
 30
0.0
 11
21.6697
 21
40.8838
 31
0.0
  0
LINE
  8
0
 62
     0
 10
21.6697
 20
40.8838
 30
0.0
 11
35.669
 21
40.8838
 31
0.0
  0
LINE
  8
0
 62
     0
 10
35.669
 20
40.8838
 30
0.0
 11
35.669
 21
41.8828
 31
0.0
  0
LINE
  8
0
 62
     0
 10
35.669
 20
41.8828
 30
0.0
 11
36.4698
 21
41.8828
 31
0.0
  0
LINE
  8
0
 62
     0
 10
36.4698
 20
41.8828
 30
0.0
 11
36.4698
 21
44.9834
 31
0.0
  0
LINE
  8
0
 62
     0
 10
36.4698
 20
44.9834
 30
0.0
 11
35.669
 21
44.9834
 31
0.0
  0
LINE
  8
0
 62
     0
 10
35.669
 20
44.9834
 30
0.0
 11
35.669
 21
50.7834
 31
0.0
  0
LINE
  8
0
 62
     0
 10
35.669
 20
50.7834
 30
0.0
 11
36.4698
 21
50.7834
 31
0.0
  0
LINE
  8
0
 62
     0
 10
36.4698
 20
50.7834
 30
0.0
 11
36.4698
 21
53.8826
 31
0.0
  0
LINE
  8
0
 62
     0
 10
36.4698
 20
53.8826
 30
0.0
 11
35.669
 21
53.8826
 31
0.0
  0
LINE
  8
0
 62
     0
 10
35.669
 20
53.8826
 30
0.0
 11
35.669
 21
54.8831
 31
0.0
  0
LINE
  8
0
 62
     0
 10
35.669
 20
54.8831
 30
0.0
 11
21.6697
 21
54.8831
 31
0.0
  0
LINE
  8
0
 62
     0
 10
2.61965
 20
54.8831
 30
0.0
 11
2.61965
 21
53.8826
 31
0.0
  0
LINE
  8
0
 62
     0
 10
2.61965
 20
53.8826
 30
0.0
 11
1.81901
 21
53.8826
 31
0.0
  0
LINE
  8
0
 62
     0
 10
1.81901
 20
53.8826
 30
0.0
 11
1.81901
 21
50.7834
 31
0.0
  0
LINE
  8
0
 62
     0
 10
1.81901
 20
50.7834
 30
0.0
 11
2.61965
 21
50.7834
 31
0.0
  0
LINE
  8
0
 62
     0
 10
2.61965
 20
50.7834
 30
0.0
 11
2.61965
 21
44.9834
 31
0.0
  0
LINE
  8
0
 62
     0
 10
2.61965
 20
44.9834
 30
0.0
 11
1.81901
 21
44.9834
 31
0.0
  0
LINE
  8
0
 62
     0
 10
1.81901
 20
44.9834
 30
0.0
 11
1.81901
 21
41.8828
 31
0.0
  0
LINE
  8
0
 62
     0
 10
1.81901
 20
41.8828
 30
0.0
 11
2.61965
 21
41.8828
 31
0.0
  0
LINE
  8
0
 62
     0
 10
2.61965
 20
41.8828
 30
0.0
 11
2.61965
 21
40.8838
 31
0.0
  0
LINE
  8
0
 62
     0
 10
2.61965
 20
40.8838
 30
0.0
 11
16.6192
 21
40.8838
 31
0.0
  0
LINE
  8
0
 62
     0
 10
16.6192
 20
40.8838
 30
0.0
 11
16.6192
 21
41.8828
 31
0.0
  0
LINE
  8
0
 62
     0
 10
16.6192
 20
41.8828
 30
0.0
 11
17.4198
 21
41.8828
 31
0.0
  0
LINE
  8
0
 62
     0
 10
17.4198
 20
41.8828
 30
0.0
 11
17.4198
 21
44.9834
 31
0.0
  0
LINE
  8
0
 62
     0
 10
17.4198
 20
44.9834
 30
0.0
 11
16.6192
 21
44.9834
 31
0.0
  0
LINE
  8
0
 62
     0
 10
16.6192
 20
44.9834
 30
0.0
 11
16.6192
 21
50.7834
 31
0.0
  0
LINE
  8
0
 62
     0
 10
16.6192
 20
50.7834
 30
0.0
 11
17.4198
 21
50.7834
 31
0.0
  0
LINE
  8
0
 62
     0
 10
17.4198
 20
50.7834
 30
0.0
 11
17.4198
 21
53.8826
 31
0.0
  0
LINE
  8
0
 62
     0
 10
17.4198
 20
53.8826
 30
0.0
 11
16.6192
 21
53.8826
 31
0.0
  0
LINE
  8
0
 62
     0
 10
16.6192
 20
53.8826
 30
0.0
 11
16.6192
 21
54.8831
 31
0.0
  0
LINE
  8
0
 62
     0
 10
16.6192
 20
54.8831
 30
0.0
 11
2.61965
 21
54.8831
 31
0.0
  0
LINE
  8
0
 62
     0
 10
78.8197
 20
73.9331
 30
0.0
 11
78.8197
 21
72.9326
 31
0.0
  0
LINE
  8
0
 62
     0
 10
78.8197
 20
72.9326
 30
0.0
 11
78.0189
 21
72.9326
 31
0.0
  0
LINE
  8
0
 62
     0
 10
78.0189
 20
72.9326
 30
0.0
 11
78.0189
 21
69.8334
 31
0.0
  0
LINE
  8
0
 62
     0
 10
78.0189
 20
69.8334
 30
0.0
 11
78.8197
 21
69.8334
 31
0.0
  0
LINE
  8
0
 62
     0
 10
78.8197
 20
69.8334
 30
0.0
 11
78.8197
 21
64.0334
 31
0.0
  0
LINE
  8
0
 62
     0
 10
78.8197
 20
64.0334
 30
0.0
 11
78.0189
 21
64.0334
 31
0.0
  0
LINE
  8
0
 62
     0
 10
78.0189
 20
64.0334
 30
0.0
 11
78.0189
 21
60.9328
 31
0.0
  0
LINE
  8
0
 62
     0
 10
78.0189
 20
60.9328
 30
0.0
 11
78.8197
 21
60.9328
 31
0.0
  0
LINE
  8
0
 62
     0
 10
78.8197
 20
60.9328
 30
0.0
 11
78.8197
 21
59.9338
 31
0.0
  0
LINE
  8
0
 62
     0
 10
78.8197
 20
59.9338
 30
0.0
 11
92.819
 21
59.9338
 31
0.0
  0
LINE
  8
0
 62
     0
 10
92.819
 20
59.9338
 30
0.0
 11
92.819
 21
60.9328
 31
0.0
  0
LINE
  8
0
 62
     0
 10
92.819
 20
60.9328
 30
0.0
 11
93.6184
 21
60.9328
 31
0.0
  0
LINE
  8
0
 62
     0
 10
93.6184
 20
60.9328
 30
0.0
 11
93.6184
 21
64.0334
 31
0.0
  0
LINE
  8
0
 62
     0
 10
93.6184
 20
64.0334
 30
0.0
 11
92.819
 21
64.0334
 31
0.0
  0
LINE
  8
0
 62
     0
 10
92.819
 20
64.0334
 30
0.0
 11
92.819
 21
69.8334
 31
0.0
  0
LINE
  8
0
 62
     0
 10
92.819
 20
69.8334
 30
0.0
 11
93.6184
 21
69.8334
 31
0.0
  0
LINE
  8
0
 62
     0
 10
93.6184
 20
69.8334
 30
0.0
 11
93.6184
 21
72.9326
 31
0.0
  0
LINE
  8
0
 62
     0
 10
93.6184
 20
72.9326
 30
0.0
 11
92.819
 21
72.9326
 31
0.0
  0
LINE
  8
0
 62
     0
 10
92.819
 20
72.9326
 30
0.0
 11
92.819
 21
73.9331
 31
0.0
  0
LINE
  8
0
 62
     0
 10
92.819
 20
73.9331
 30
0.0
 11
78.8197
 21
73.9331
 31
0.0
  0
LINE
  8
0
 62
     0
 10
59.7697
 20
73.9331
 30
0.0
 11
59.7697
 21
72.9326
 31
0.0
  0
LINE
  8
0
 62
     0
 10
59.7697
 20
72.9326
 30
0.0
 11
58.9689
 21
72.9326
 31
0.0
  0
LINE
  8
0
 62
     0
 10
58.9689
 20
72.9326
 30
0.0
 11
58.9689
 21
69.8334
 31
0.0
  0
LINE
  8
0
 62
     0
 10
58.9689
 20
69.8334
 30
0.0
 11
59.7697
 21
69.8334
 31
0.0
  0
LINE
  8
0
 62
     0
 10
59.7697
 20
69.8334
 30
0.0
 11
59.7697
 21
64.0334
 31
0.0
  0
LINE
  8
0
 62
     0
 10
59.7697
 20
64.0334
 30
0.0
 11
58.9689
 21
64.0334
 31
0.0
  0
LINE
  8
0
 62
     0
 10
58.9689
 20
64.0334
 30
0.0
 11
58.9689
 21
60.9328
 31
0.0
  0
LINE
  8
0
 62
     0
 10
58.9689
 20
60.9328
 30
0.0
 11
59.7697
 21
60.9328
 31
0.0
  0
LINE
  8
0
 62
     0
 10
59.7697
 20
60.9328
 30
0.0
 11
59.7697
 21
59.9338
 31
0.0
  0
LINE
  8
0
 62
     0
 10
59.7697
 20
59.9338
 30
0.0
 11
73.769
 21
59.9338
 31
0.0
  0
LINE
  8
0
 62
     0
 10
73.769
 20
59.9338
 30
0.0
 11
73.769
 21
60.9328
 31
0.0
  0
LINE
  8
0
 62
     0
 10
73.769
 20
60.9328
 30
0.0
 11
74.5698
 21
60.9328
 31
0.0
  0
LINE
  8
0
 62
     0
 10
74.5698
 20
60.9328
 30
0.0
 11
74.5698
 21
64.0334
 31
0.0
  0
LINE
  8
0
 62
     0
 10
74.5698
 20
64.0334
 30
0.0
 11
73.769
 21
64.0334
 31
0.0
  0
LINE
  8
0
 62
     0
 10
73.769
 20
64.0334
 30
0.0
 11
73.769
 21
69.8334
 31
0.0
  0
LINE
  8
0
 62
     0
 10
73.769
 20
69.8334
 30
0.0
 11
74.5698
 21
69.8334
 31
0.0
  0
LINE
  8
0
 62
     0
 10
74.5698
 20
69.8334
 30
0.0
 11
74.5698
 21
72.9326
 31
0.0
  0
LINE
  8
0
 62
     0
 10
74.5698
 20
72.9326
 30
0.0
 11
73.769
 21
72.9326
 31
0.0
  0
LINE
  8
0
 62
     0
 10
73.769
 20
72.9326
 30
0.0
 11
73.769
 21
73.9331
 31
0.0
  0
LINE
  8
0
 62
     0
 10
73.769
 20
73.9331
 30
0.0
 11
59.7697
 21
73.9331
 31
0.0
  0
LINE
  8
0
 62
     0
 10
40.7197
 20
73.9331
 30
0.0
 11
40.7197
 21
72.9326
 31
0.0
  0
LINE
  8
0
 62
     0
 10
40.7197
 20
72.9326
 30
0.0
 11
39.9189
 21
72.9326
 31
0.0
  0
LINE
  8
0
 62
     0
 10
39.9189
 20
72.9326
 30
0.0
 11
39.9189
 21
69.8334
 31
0.0
  0
LINE
  8
0
 62
     0
 10
39.9189
 20
69.8334
 30
0.0
 11
40.7197
 21
69.8334
 31
0.0
  0
LINE
  8
0
 62
     0
 10
40.7197
 20
69.8334
 30
0.0
 11
40.7197
 21
64.0334
 31
0.0
  0
LINE
  8
0
 62
     0
 10
40.7197
 20
64.0334
 30
0.0
 11
39.9189
 21
64.0334
 31
0.0
  0
LINE
  8
0
 62
     0
 10
39.9189
 20
64.0334
 30
0.0
 11
39.9189
 21
60.9328
 31
0.0
  0
LINE
  8
0
 62
     0
 10
39.9189
 20
60.9328
 30
0.0
 11
40.7197
 21
60.9328
 31
0.0
  0
LINE
  8
0
 62
     0
 10
40.7197
 20
60.9328
 30
0.0
 11
40.7197
 21
59.9338
 31
0.0
  0
LINE
  8
0
 62
     0
 10
40.7197
 20
59.9338
 30
0.0
 11
54.719
 21
59.9338
 31
0.0
  0
LINE
  8
0
 62
     0
 10
54.719
 20
59.9338
 30
0.0
 11
54.719
 21
60.9328
 31
0.0
  0
LINE
  8
0
 62
     0
 10
54.719
 20
60.9328
 30
0.0
 11
55.5198
 21
60.9328
 31
0.0
  0
LINE
  8
0
 62
     0
 10
55.5198
 20
60.9328
 30
0.0
 11
55.5198
 21
64.0334
 31
0.0
  0
LINE
  8
0
 62
     0
 10
55.5198
 20
64.0334
 30
0.0
 11
54.719
 21
64.0334
 31
0.0
  0
LINE
  8
0
 62
     0
 10
54.719
 20
64.0334
 30
0.0
 11
54.719
 21
69.8334
 31
0.0
  0
LINE
  8
0
 62
     0
 10
54.719
 20
69.8334
 30
0.0
 11
55.5198
 21
69.8334
 31
0.0
  0
LINE
  8
0
 62
     0
 10
55.5198
 20
69.8334
 30
0.0
 11
55.5198
 21
72.9326
 31
0.0
  0
LINE
  8
0
 62
     0
 10
55.5198
 20
72.9326
 30
0.0
 11
54.719
 21
72.9326
 31
0.0
  0
LINE
  8
0
 62
     0
 10
54.719
 20
72.9326
 30
0.0
 11
54.719
 21
73.9331
 31
0.0
  0
LINE
  8
0
 62
     0
 10
54.719
 20
73.9331
 30
0.0
 11
40.7197
 21
73.9331
 31
0.0
  0
LINE
  8
0
 62
     0
 10
21.6697
 20
73.9331
 30
0.0
 11
21.6697
 21
72.9326
 31
0.0
  0
LINE
  8
0
 62
     0
 10
21.6697
 20
72.9326
 30
0.0
 11
20.869
 21
72.9326
 31
0.0
  0
LINE
  8
0
 62
     0
 10
20.869
 20
72.9326
 30
0.0
 11
20.869
 21
69.8334
 31
0.0
  0
LINE
  8
0
 62
     0
 10
20.869
 20
69.8334
 30
0.0
 11
21.6697
 21
69.8334
 31
0.0
  0
LINE
  8
0
 62
     0
 10
21.6697
 20
69.8334
 30
0.0
 11
21.6697
 21
64.0334
 31
0.0
  0
LINE
  8
0
 62
     0
 10
21.6697
 20
64.0334
 30
0.0
 11
20.869
 21
64.0334
 31
0.0
  0
LINE
  8
0
 62
     0
 10
20.869
 20
64.0334
 30
0.0
 11
20.869
 21
60.9328
 31
0.0
  0
LINE
  8
0
 62
     0
 10
20.869
 20
60.9328
 30
0.0
 11
21.6697
 21
60.9328
 31
0.0
  0
LINE
  8
0
 62
     0
 10
21.6697
 20
60.9328
 30
0.0
 11
21.6697
 21
59.9338
 31
0.0
  0
LINE
  8
0
 62
     0
 10
21.6697
 20
59.9338
 30
0.0
 11
35.669
 21
59.9338
 31
0.0
  0
LINE
  8
0
 62
     0
 10
35.669
 20
59.9338
 30
0.0
 11
35.669
 21
60.9328
 31
0.0
  0
LINE
  8
0
 62
     0
 10
35.669
 20
60.9328
 30
0.0
 11
36.4698
 21
60.9328
 31
0.0
  0
LINE
  8
0
 62
     0
 10
36.4698
 20
60.9328
 30
0.0
 11
36.4698
 21
64.0334
 31
0.0
  0
LINE
  8
0
 62
     0
 10
36.4698
 20
64.0334
 30
0.0
 11
35.669
 21
64.0334
 31
0.0
  0
LINE
  8
0
 62
     0
 10
35.669
 20
64.0334
 30
0.0
 11
35.669
 21
69.8334
 31
0.0
  0
LINE
  8
0
 62
     0
 10
35.669
 20
69.8334
 30
0.0
 11
36.4698
 21
69.8334
 31
0.0
  0
LINE
  8
0
 62
     0
 10
36.4698
 20
69.8334
 30
0.0
 11
36.4698
 21
72.9326
 31
0.0
  0
LINE
  8
0
 62
     0
 10
36.4698
 20
72.9326
 30
0.0
 11
35.669
 21
72.9326
 31
0.0
  0
LINE
  8
0
 62
     0
 10
35.669
 20
72.9326
 30
0.0
 11
35.669
 21
73.9331
 31
0.0
  0
LINE
  8
0
 62
     0
 10
35.669
 20
73.9331
 30
0.0
 11
21.6697
 21
73.9331
 31
0.0
  0
LINE
  8
0
 62
     0
 10
2.61965
 20
73.9331
 30
0.0
 11
2.61965
 21
72.9326
 31
0.0
  0
LINE
  8
0
 62
     0
 10
2.61965
 20
72.9326
 30
0.0
 11
1.81901
 21
72.9326
 31
0.0
  0
LINE
  8
0
 62
     0
 10
1.81901
 20
72.9326
 30
0.0
 11
1.81901
 21
69.8334
 31
0.0
  0
LINE
  8
0
 62
     0
 10
1.81901
 20
69.8334
 30
0.0
 11
2.61965
 21
69.8334
 31
0.0
  0
LINE
  8
0
 62
     0
 10
2.61965
 20
69.8334
 30
0.0
 11
2.61965
 21
64.0334
 31
0.0
  0
LINE
  8
0
 62
     0
 10
2.61965
 20
64.0334
 30
0.0
 11
1.81901
 21
64.0334
 31
0.0
  0
LINE
  8
0
 62
     0
 10
1.81901
 20
64.0334
 30
0.0
 11
1.81901
 21
60.9328
 31
0.0
  0
LINE
  8
0
 62
     0
 10
1.81901
 20
60.9328
 30
0.0
 11
2.61965
 21
60.9328
 31
0.0
  0
LINE
  8
0
 62
     0
 10
2.61965
 20
60.9328
 30
0.0
 11
2.61965
 21
59.9338
 31
0.0
  0
LINE
  8
0
 62
     0
 10
2.61965
 20
59.9338
 30
0.0
 11
16.6192
 21
59.9338
 31
0.0
  0
LINE
  8
0
 62
     0
 10
16.6192
 20
59.9338
 30
0.0
 11
16.6192
 21
60.9328
 31
0.0
  0
LINE
  8
0
 62
     0
 10
16.6192
 20
60.9328
 30
0.0
 11
17.4198
 21
60.9328
 31
0.0
  0
LINE
  8
0
 62
     0
 10
17.4198
 20
60.9328
 30
0.0
 11
17.4198
 21
64.0334
 31
0.0
  0
LINE
  8
0
 62
     0
 10
17.4198
 20
64.0334
 30
0.0
 11
16.6192
 21
64.0334
 31
0.0
  0
LINE
  8
0
 62
     0
 10
16.6192
 20
64.0334
 30
0.0
 11
16.6192
 21
69.8334
 31
0.0
  0
LINE
  8
0
 62
     0
 10
16.6192
 20
69.8334
 30
0.0
 11
17.4198
 21
69.8334
 31
0.0
  0
LINE
  8
0
 62
     0
 10
17.4198
 20
69.8334
 30
0.0
 11
17.4198
 21
72.9326
 31
0.0
  0
LINE
  8
0
 62
     0
 10
17.4198
 20
72.9326
 30
0.0
 11
16.6192
 21
72.9326
 31
0.0
  0
LINE
  8
0
 62
     0
 10
16.6192
 20
72.9326
 30
0.0
 11
16.6192
 21
73.9331
 31
0.0
  0
LINE
  8
0
 62
     0
 10
16.6192
 20
73.9331
 30
0.0
 11
2.61965
 21
73.9331
 31
0.0
  0
LINE
  8
0
 62
     0
 10
21.6697
 20
92.9831
 30
0.0
 11
21.6697
 21
91.9826
 31
0.0
  0
LINE
  8
0
 62
     0
 10
21.6697
 20
91.9826
 30
0.0
 11
20.869
 21
91.9826
 31
0.0
  0
LINE
  8
0
 62
     0
 10
20.869
 20
91.9826
 30
0.0
 11
20.869
 21
88.8834
 31
0.0
  0
LINE
  8
0
 62
     0
 10
20.869
 20
88.8834
 30
0.0
 11
21.6697
 21
88.8834
 31
0.0
  0
LINE
  8
0
 62
     0
 10
21.6697
 20
88.8834
 30
0.0
 11
21.6697
 21
83.0834
 31
0.0
  0
LINE
  8
0
 62
     0
 10
21.6697
 20
83.0834
 30
0.0
 11
20.869
 21
83.0834
 31
0.0
  0
LINE
  8
0
 62
     0
 10
20.869
 20
83.0834
 30
0.0
 11
20.869
 21
79.9828
 31
0.0
  0
LINE
  8
0
 62
     0
 10
20.869
 20
79.9828
 30
0.0
 11
21.6697
 21
79.9828
 31
0.0
  0
LINE
  8
0
 62
     0
 10
21.6697
 20
79.9828
 30
0.0
 11
21.6697
 21
78.9838
 31
0.0
  0
LINE
  8
0
 62
     0
 10
21.6697
 20
78.9838
 30
0.0
 11
35.669
 21
78.9838
 31
0.0
  0
LINE
  8
0
 62
     0
 10
35.669
 20
78.9838
 30
0.0
 11
35.669
 21
79.9828
 31
0.0
  0
LINE
  8
0
 62
     0
 10
35.669
 20
79.9828
 30
0.0
 11
36.4698
 21
79.9828
 31
0.0
  0
LINE
  8
0
 62
     0
 10
36.4698
 20
79.9828
 30
0.0
 11
36.4698
 21
83.0834
 31
0.0
  0
LINE
  8
0
 62
     0
 10
36.4698
 20
83.0834
 30
0.0
 11
35.669
 21
83.0834
 31
0.0
  0
LINE
  8
0
 62
     0
 10
35.669
 20
83.0834
 30
0.0
 11
35.669
 21
88.8834
 31
0.0
  0
LINE
  8
0
 62
     0
 10
35.669
 20
88.8834
 30
0.0
 11
36.4698
 21
88.8834
 31
0.0
  0
LINE
  8
0
 62
     0
 10
36.4698
 20
88.8834
 30
0.0
 11
36.4698
 21
91.9826
 31
0.0
  0
LINE
  8
0
 62
     0
 10
36.4698
 20
91.9826
 30
0.0
 11
35.669
 21
91.9826
 31
0.0
  0
LINE
  8
0
 62
     0
 10
35.669
 20
91.9826
 30
0.0
 11
35.669
 21
92.9831
 31
0.0
  0
LINE
  8
0
 62
     0
 10
35.669
 20
92.9831
 30
0.0
 11
21.6697
 21
92.9831
 31
0.0
  0
LINE
  8
0
 62
     0
 10
2.61965
 20
92.9831
 30
0.0
 11
2.61965
 21
91.9826
 31
0.0
  0
LINE
  8
0
 62
     0
 10
2.61965
 20
91.9826
 30
0.0
 11
1.81901
 21
91.9826
 31
0.0
  0
LINE
  8
0
 62
     0
 10
1.81901
 20
91.9826
 30
0.0
 11
1.81901
 21
88.8834
 31
0.0
  0
LINE
  8
0
 62
     0
 10
1.81901
 20
88.8834
 30
0.0
 11
2.61965
 21
88.8834
 31
0.0
  0
LINE
  8
0
 62
     0
 10
2.61965
 20
88.8834
 30
0.0
 11
2.61965
 21
83.0834
 31
0.0
  0
LINE
  8
0
 62
     0
 10
2.61965
 20
83.0834
 30
0.0
 11
1.81901
 21
83.0834
 31
0.0
  0
LINE
  8
0
 62
     0
 10
1.81901
 20
83.0834
 30
0.0
 11
1.81901
 21
79.9828
 31
0.0
  0
LINE
  8
0
 62
     0
 10
1.81901
 20
79.9828
 30
0.0
 11
2.61965
 21
79.9828
 31
0.0
  0
LINE
  8
0
 62
     0
 10
2.61965
 20
79.9828
 30
0.0
 11
2.61965
 21
78.9838
 31
0.0
  0
LINE
  8
0
 62
     0
 10
2.61965
 20
78.9838
 30
0.0
 11
16.6192
 21
78.9838
 31
0.0
  0
LINE
  8
0
 62
     0
 10
16.6192
 20
78.9838
 30
0.0
 11
16.6192
 21
79.9828
 31
0.0
  0
LINE
  8
0
 62
     0
 10
16.6192
 20
79.9828
 30
0.0
 11
17.4198
 21
79.9828
 31
0.0
  0
LINE
  8
0
 62
     0
 10
17.4198
 20
79.9828
 30
0.0
 11
17.4198
 21
83.0834
 31
0.0
  0
LINE
  8
0
 62
     0
 10
17.4198
 20
83.0834
 30
0.0
 11
16.6192
 21
83.0834
 31
0.0
  0
LINE
  8
0
 62
     0
 10
16.6192
 20
83.0834
 30
0.0
 11
16.6192
 21
88.8834
 31
0.0
  0
LINE
  8
0
 62
     0
 10
16.6192
 20
88.8834
 30
0.0
 11
17.4198
 21
88.8834
 31
0.0
  0
LINE
  8
0
 62
     0
 10
17.4198
 20
88.8834
 30
0.0
 11
17.4198
 21
91.9826
 31
0.0
  0
LINE
  8
0
 62
     0
 10
17.4198
 20
91.9826
 30
0.0
 11
16.6192
 21
91.9826
 31
0.0
  0
LINE
  8
0
 62
     0
 10
16.6192
 20
91.9826
 30
0.0
 11
16.6192
 21
92.9831
 31
0.0
  0
LINE
  8
0
 62
     0
 10
16.6192
 20
92.9831
 30
0.0
 11
2.61965
 21
92.9831
 31
0.0
  0
ENDSEC
  0
EOF
